<svg width="3190" height="1024" viewBox="0 0 3190 1024" fill="none" xmlns="http://www.w3.org/2000/svg">
<g clip-path="url(#clip0_4_41)">
<rect width="3190" height="1024" rx="150" fill="white"/>
<path d="M202 424C202 384.796 202 365.194 209.63 350.221C216.341 337.049 227.049 326.341 240.221 319.63C255.194 312 274.796 312 314 312H869C908.204 312 927.806 312 942.779 319.63C955.951 326.341 966.659 337.049 973.37 350.221C981 365.194 981 384.796 981 424V664C981 703.204 981 722.806 973.37 737.779C966.659 750.951 955.951 761.659 942.779 768.37C927.806 776 908.204 776 869 776H314C274.796 776 255.194 776 240.221 768.37C227.049 761.659 216.341 750.951 209.63 737.779C202 722.806 202 703.204 202 664V424Z" fill="#016D9B"/>
<circle cx="409" cy="549" r="160" fill="white"/>
<rect x="249" y="392" width="15" height="320" transform="rotate(-90 249 392)" fill="#016D9B"/>
<rect x="249" y="422" width="15" height="320" transform="rotate(-90 249 422)" fill="#016D9B"/>
<rect x="249" y="452" width="15" height="320" transform="rotate(-90 249 452)" fill="#016D9B"/>
<rect x="249" y="482" width="15" height="320" transform="rotate(-90 249 482)" fill="#016D9B"/>
<rect x="249" y="512" width="15" height="320" transform="rotate(-90 249 512)" fill="#016D9B"/>
<rect x="249" y="542" width="15" height="320" transform="rotate(-90 249 542)" fill="#016D9B"/>
<rect x="249" y="572" width="15" height="320" transform="rotate(-90 249 572)" fill="#016D9B"/>
<rect x="249" y="602" width="15" height="320" transform="rotate(-90 249 602)" fill="#016D9B"/>
<rect x="249" y="632" width="15" height="320" transform="rotate(-90 249 632)" fill="#016D9B"/>
<rect x="249" y="662" width="15" height="320" transform="rotate(-90 249 662)" fill="#016D9B"/>
<rect x="249" y="692" width="15" height="320" transform="rotate(-90 249 692)" fill="#016D9B"/>
<rect x="249" y="722" width="15" height="320" transform="rotate(-90 249 722)" fill="#016D9B"/>
<rect x="402" y="389" width="15" height="320" fill="#016D9B"/>
<path d="M1253.6 369.08H1194.08C1187.25 369.08 1183.84 370.787 1183.84 374.2V771H1116.64C1102.13 771 1092.53 768.867 1087.84 764.6C1083.57 759.907 1081.44 750.307 1081.44 735.8V344.76C1081.44 329.827 1083.57 320.013 1087.84 315.32C1092.53 310.627 1102.13 308.28 1116.64 308.28H1253.6V369.08ZM1289.44 570.04H1350.24C1367.73 570.04 1379.04 574.093 1384.16 582.2C1389.28 589.88 1391.84 602.253 1391.84 619.32V714.04C1391.84 742.2 1384.37 759.48 1369.44 765.88C1362.19 769.293 1353.01 771 1341.92 771H1209.44V710.84H1263.2C1280.69 710.84 1289.44 704.653 1289.44 692.28V570.04ZM1281.12 308.28H1341.92C1358.99 308.28 1369.87 312.12 1374.56 319.8C1379.68 327.48 1382.24 340.067 1382.24 357.56V480.44C1382.24 505.187 1377.76 523.107 1368.8 534.2C1360.27 545.293 1342.13 550.84 1314.4 550.84H1209.44V490.04H1256.8C1267.47 490.04 1274.08 487.48 1276.64 482.36C1279.63 477.24 1281.12 469.347 1281.12 458.68V308.28ZM1465.62 451.64H1504.66C1523.43 451.64 1537.51 456.333 1546.9 465.72C1556.71 474.68 1561.62 486.413 1561.62 500.92V771H1488.66C1481.83 771 1476.29 768.653 1472.02 763.96C1467.75 759.267 1465.62 753.08 1465.62 745.4V451.64ZM1470.1 315.32C1474.79 310.627 1488.45 308.28 1511.06 308.28C1533.67 308.28 1547.33 310.627 1552.02 315.32C1556.71 319.587 1559.06 332.387 1559.06 353.72C1559.06 375.053 1556.5 388.067 1551.38 392.76C1546.69 397.453 1533.25 399.8 1511.06 399.8C1488.87 399.8 1475.22 397.453 1470.1 392.76C1465.41 388.067 1463.06 375.053 1463.06 353.72C1463.06 332.387 1465.41 319.587 1470.1 315.32ZM1771.32 766.52C1771.32 769.507 1770.25 771 1768.12 771H1703.48C1679.58 771 1661.88 765.453 1650.36 754.36C1639.26 743.267 1633.72 725.133 1633.72 699.96V308.92H1672.76C1691.53 308.92 1705.61 313.613 1715 323C1724.81 331.96 1729.72 343.693 1729.72 358.2V698.68C1729.72 711.907 1732.49 719.373 1738.04 721.08C1741.02 722.36 1745.08 723 1750.2 723H1766.2C1769.61 723 1771.32 724.493 1771.32 727.48V766.52ZM1815.62 451.64H1854.66C1873.43 451.64 1887.51 456.333 1896.9 465.72C1906.71 474.68 1911.62 486.413 1911.62 500.92V771H1838.66C1831.83 771 1826.29 768.653 1822.02 763.96C1817.75 759.267 1815.62 753.08 1815.62 745.4V451.64ZM1820.1 315.32C1824.79 310.627 1838.45 308.28 1861.06 308.28C1883.67 308.28 1897.33 310.627 1902.02 315.32C1906.71 319.587 1909.06 332.387 1909.06 353.72C1909.06 375.053 1906.5 388.067 1901.38 392.76C1896.69 397.453 1883.25 399.8 1861.06 399.8C1838.87 399.8 1825.22 397.453 1820.1 392.76C1815.41 388.067 1813.06 375.053 1813.06 353.72C1813.06 332.387 1815.41 319.587 1820.1 315.32ZM2095.72 771H2028.52C2014.01 771 2004.41 768.653 1999.72 763.96C1995.45 759.267 1993.32 749.667 1993.32 735.16V345.4C1993.32 330.467 1995.66 320.653 2000.36 315.96C2005.05 310.84 2014.44 308.28 2028.52 308.28H2095.72V771ZM2255.08 486.84V525.24C2255.08 540.6 2253.58 550.413 2250.6 554.68C2247.61 558.52 2239.08 560.44 2225 560.44H2121.32V486.84H2255.08ZM2280.68 308.28V363.32C2280.68 377.827 2278.33 387.427 2273.64 392.12C2268.94 396.387 2259.13 398.52 2244.2 398.52H2121.32V308.28H2280.68ZM2675.54 308.28H2771.54C2802.68 308.28 2826.15 313.613 2841.94 324.28C2858.15 334.947 2866.26 353.507 2866.26 379.96V734.52C2866.26 749.453 2863.91 759.267 2859.22 763.96C2854.95 768.653 2845.56 771 2831.06 771H2763.86V387.64C2763.86 380.813 2762.79 376.12 2760.66 373.56C2758.95 370.573 2754.26 369.08 2746.58 369.08H2675.54V308.28ZM2443.22 771H2376.02C2361.51 771 2351.91 768.653 2347.22 763.96C2342.95 759.267 2340.82 749.453 2340.82 734.52V333.88C2340.82 326.2 2342.95 320.013 2347.22 315.32C2351.48 310.627 2357.03 308.28 2363.86 308.28H2443.22V771ZM2469.46 308.28H2633.29C2640.12 308.28 2645.67 310.627 2649.94 315.32C2654.2 320.013 2656.34 326.2 2656.34 333.88V724.28H2589.78C2576.98 724.28 2567.8 720.867 2562.26 714.04C2556.71 706.787 2553.94 695.267 2553.94 679.48V387.64C2553.94 380.813 2552.87 376.12 2550.74 373.56C2549.03 370.573 2544.34 369.08 2536.66 369.08H2469.46V308.28Z" fill="#016D9B"/>
<circle cx="918" cy="465" r="15" fill="white"/>
<circle cx="918" cy="507" r="15" fill="white"/>
<circle cx="918" cy="549" r="15" fill="white"/>
<circle cx="918" cy="591" r="15" fill="white"/>
<circle cx="918" cy="633" r="15" fill="white"/>
</g>
<defs>
<clipPath id="clip0_4_41">
<rect width="3190" height="1024" rx="150" fill="white"/>
</clipPath>
</defs>
</svg>
